# xmcd
#
# Track frame offsets:
#	150
#	14025
#	29627
#	43952
#	58687
#	70386
#	101129
#	116430
#	129930
#	146730
#	173592
#	187208
#	214367
#	228843
#
# Disc length: 3779
#
# Revision: 1
# Processed by: cddbd v1.5.1PL0 Copyright (c) Steve Scherf et al.
# Submitted via: CDex 1.51
# Normalized: r0:DSETVAR1,TDELIM( - )
#
DISCID=d90ec10e
DTITLE=Various Artist - Hot and Cool Jazz Vol.3 CD1
DYEAR=1900
DGENRE=Jazz
TTITLE0=Chocolate Dandies - Cadillac Slim
TTITLE1=Glenn Miller - Tuxedo Junction
TTITLE2=Frank Trumbauer - I'm Comin Virginia
TTITLE3=Ella Fitzgerald - How High The Moon
TTITLE4=George Wettling - Indiana
TTITLE5=Louis Armstrong - On The Sunny Side Of The Street
TTITLE6=Lester Young - Blue Lester
TTITLE7=Fletcher Henderson - Radio Rhythm
TTITLE8=Charlie Johnson - The Boy In The Boat
TTITLE9=Sarah Vaughan - Misty
TTITLE10=Coleman Hawkins - Crazy Rhythm
TTITLE11=Lionel Hampton - Air mail Special Part 1&2
TTITLE12=Billie Holiday - Strange Fruit
TTITLE13=Benny Goodman - Sing Sing Sing
EXTD=
EXTT0=
EXTT1=
EXTT2=
EXTT3=
EXTT4=
EXTT5=
EXTT6=
EXTT7=
EXTT8=
EXTT9=
EXTT10=
EXTT11=
EXTT12=
EXTT13=
PLAYORDER=
